<?xml version="1.0" standalone="no"?>
<!DOCTYPE svg PUBLIC "-//W3C//DTD SVG 20010904//EN"
 "http://www.w3.org/TR/2001/REC-SVG-20010904/DTD/svg10.dtd">
<svg version="1.0" xmlns="http://www.w3.org/2000/svg"
 width="1000.000000pt" height="1000.000000pt" viewBox="0 0 1000.000000 1000.000000"
 preserveAspectRatio="xMidYMid meet">
<metadata>
Created by potrace 1.14, written by Peter Selinger 2001-2017
</metadata>
<g transform="translate(0.000000,1000.000000) scale(0.100000,-0.100000)"
fill="#000000" stroke="none">
<path d="M3378 9415 c-2 -1 -39 -5 -83 -9 -318 -25 -635 -102 -920 -223 -100
-43 -334 -165 -391 -204 -23 -16 -46 -29 -50 -29 -8 0 -52 -32 -192 -139 -568
-434 -956 -1049 -1097 -1738 -27 -134 -29 -148 -46 -293 -13 -118 -17 -409 -7
-545 14 -179 58 -419 107 -585 42 -140 53 -172 97 -282 352 -872 1094 -1519
2007 -1753 73 -18 148 -36 167 -39 19 -3 44 -8 55 -10 12 -2 48 -7 80 -11 33
-4 69 -9 80 -11 117 -23 509 -23 690 0 17 2 54 7 83 10 118 15 357 71 497 118
96 32 219 80 233 91 6 5 12 7 12 3 0 -8 227 107 330 167 83 49 219 140 271
181 14 12 38 30 53 41 16 11 36 27 45 35 9 8 26 24 39 34 l22 19 614 -614 615
-614 -24 -25 c-61 -64 -79 -183 -40 -261 9 -19 481 -499 1048 -1068 796 -797
1042 -1038 1077 -1054 67 -30 138 -30 200 2 68 35 411 377 442 440 28 59 31
138 6 193 -14 33 -270 295 -1051 1076 -611 612 -1048 1042 -1072 1055 -78 42
-213 21 -272 -42 -18 -19 -33 -4 -632 594 l-613 614 74 93 c250 311 427 657
537 1051 22 78 28 99 37 147 3 14 7 33 10 42 3 10 7 28 9 40 20 125 26 168 30
198 25 204 25 530 0 713 -53 386 -136 659 -300 982 -137 271 -291 488 -500
705 -474 493 -1103 808 -1770 885 -32 4 -68 9 -80 11 -21 5 -422 13 -427 9z
m437 -590 c190 -29 287 -51 450 -102 344 -108 670 -308 934 -572 121 -122 153
-159 233 -268 197 -271 325 -543 400 -851 50 -206 67 -367 63 -597 -2 -110 -6
-210 -8 -222 -3 -12 -8 -46 -11 -75 -30 -274 -166 -652 -327 -910 -56 -90
-181 -259 -238 -323 -323 -357 -675 -576 -1166 -725 -33 -10 -210 -46 -265
-55 -209 -31 -544 -27 -747 9 -19 4 -84 15 -120 22 -57 11 -269 76 -354 109
-381 150 -741 418 -989 735 -19 25 -37 47 -40 50 -12 11 -139 208 -170 265
-57 103 -106 206 -136 288 -9 23 -20 51 -24 62 -5 11 -18 52 -30 90 -11 39
-25 84 -30 100 -11 36 -39 166 -46 215 -2 19 -7 44 -9 55 -20 93 -27 472 -12
605 22 198 92 478 156 625 5 11 17 38 26 60 82 193 226 423 375 599 35 42 197
205 245 246 35 31 89 73 205 160 65 49 210 131 333 190 110 52 323 133 380
144 12 2 49 12 82 20 33 9 87 21 120 26 33 5 70 12 82 14 12 3 53 8 90 11 37
4 70 9 71 10 6 6 435 -3 477 -10z"/>
<path d="M2060 7667 c-19 -5 -38 -20 -50 -40 -19 -31 -20 -58 -20 -1155 0
-1216 -2 -1164 52 -1193 28 -15 260 -14 288 1 11 6 27 22 36 36 16 23 17 122
17 1153 0 839 -3 1133 -12 1149 -23 44 -53 53 -170 55 -60 1 -124 -1 -141 -6z"/>
<path d="M4770 7470 c-54 -8 -79 -31 -88 -81 -4 -24 -7 -495 -7 -1045 1 -926
2 -1003 18 -1027 27 -42 50 -48 181 -49 134 -1 162 8 184 58 9 18 12 295 12
1045 0 1101 2 1058 -52 1087 -24 13 -185 21 -248 12z"/>
<path d="M3674 7279 c-17 -5 -39 -18 -50 -30 -18 -20 -19 -50 -21 -953 -1
-599 2 -942 8 -963 16 -51 47 -64 152 -65 161 -1 164 0 199 31 l33 29 0 940
c0 1008 1 977 -50 1005 -24 13 -227 17 -271 6z"/>
<path d="M2603 6993 c-39 -7 -73 -51 -74 -97 0 -22 -1 -382 -1 -798 0 -683 1
-760 16 -782 26 -40 49 -46 179 -48 136 -1 165 8 186 60 8 19 11 252 9 819
l-3 793 -27 27 c-26 26 -31 27 -145 28 -65 1 -128 0 -140 -2z"/>
<path d="M4184 6762 c-12 -9 -27 -27 -33 -39 -8 -15 -11 -222 -11 -707 l0
-684 31 -31 c17 -17 38 -31 47 -32 78 -5 246 2 262 11 52 28 51 9 51 697 0
351 0 661 -1 689 0 43 -5 57 -29 83 l-29 31 -134 0 c-111 0 -137 -3 -154 -18z"/>
<path d="M3107 6307 c-15 -12 -31 -35 -35 -52 -5 -16 -8 -230 -7 -475 1 -483
0 -477 57 -501 39 -16 260 -14 287 3 48 30 49 42 47 530 l-1 458 -28 27 c-27
28 -30 28 -160 30 -124 2 -134 1 -160 -20z"/>
</g>
</svg>
